<svg xmlns="http://www.w3.org/2000/svg" width="30" height="34" viewBox="0 0 30 34" fill="none">
<g clip-path="url(#clip0_1240_1727)">
<path d="M30 22.499C30 23.599 29.251 24.999 28.335 25.61L16.665 33.39C15.749 34 14.251 34 13.335 33.39L1.665 25.61C0.749 24.999 0 23.6 0 22.499V11.501C0 10.401 0.749 9.00097 1.665 8.38997L13.335 0.609966C14.251 -3.41833e-05 15.749 -3.41833e-05 16.665 0.609966L28.335 8.38997C29.251 9.00097 30 10.4 30 11.501V22.499Z" fill="#F95858"></path>
<path d="M15.13 21.368C14.425 22.504 12.945 22.85 11.808 22.144C10.672 21.438 10.326 19.958 11.032 18.822L12.389 16.657C12.84 15.93 13.807 15.704 14.533 16.156C14.999 16.445 15.618 16.3 15.908 15.834C16.197 15.369 16.052 14.749 15.587 14.46C13.928 13.43 11.723 13.946 10.694 15.604L9.33605 17.769C8.05205 19.837 8.68705 22.555 10.755 23.84C11.78 24.476 12.981 24.641 14.083 24.383C15.186 24.126 16.174 23.449 16.826 22.421C17.115 21.955 16.971 21.336 16.505 21.046C16.039 20.757 15.42 20.902 15.13 21.368ZM19.249 10.164C17.181 8.879 14.463 9.515 13.178 11.583C12.889 12.049 13.033 12.668 13.499 12.957C13.965 13.246 14.584 13.102 14.874 12.636C15.579 11.499 17.059 11.154 18.196 11.859C19.332 12.565 19.678 14.045 18.972 15.182L17.615 17.347C17.167 18.088 16.201 18.314 15.47 17.848C15.005 17.559 14.386 17.703 14.096 18.169C13.807 18.635 13.952 19.254 14.417 19.543C15.256 20.064 16.209 20.192 17.1 19.983C17.991 19.775 18.79 19.238 19.31 18.4L20.653 16.238C21.952 14.167 21.317 11.449 19.249 10.164Z" fill="white"></path>
<path d="M15 1.15198C15.429 1.15198 15.834 1.25798 16.11 1.44198L27.78 9.22198C28.419 9.64798 29 10.734 29 11.501V22.499C29 23.266 28.419 24.352 27.781 24.778L16.111 32.558C15.835 32.742 15.43 32.848 15.001 32.848C14.572 32.848 14.167 32.742 13.891 32.558L2.221 24.778C1.581 24.352 1 23.266 1 22.499V11.501C1 10.734 1.581 9.64798 2.219 9.22198L13.889 1.44198C14.166 1.25798 14.571 1.15198 15 1.15198ZM15 0.151978C14.397 0.151978 13.793 0.304978 13.335 0.609978L1.665 8.38998C0.749 9.00098 0 10.4 0 11.501V22.499C0 23.599 0.749 24.999 1.665 25.61L13.335 33.39C13.793 33.695 14.396 33.848 15 33.848C15.604 33.848 16.207 33.695 16.665 33.39L28.335 25.61C29.251 24.999 30 23.6 30 22.499V11.501C30 10.401 29.251 9.00098 28.335 8.38998L16.665 0.609978C16.207 0.304978 15.603 0.151978 15 0.151978Z" fill="#F95858"></path>
<path d="M26.389 25.765C27.277 25.504 27.688 24.726 27.688 23.993C27.688 23.096 27.071 22.13 25.717 22.13H22.406C21.139 22.13 20.358 22.895 20.316 24.176L20.208 26.831C20.176 27.54 20.447 27.982 20.681 28.226L20.916 28.428C20.291 28.74 19.871 29.374 19.871 30.122C19.871 30.635 20.093 31.164 20.479 31.575C21.246 32.375 22.458 32.848 23.726 32.848C26.242 32.848 28 31.19 28 28.814C28 27.476 27.401 26.403 26.389 25.765Z" fill="#F95858"></path>
<path d="M21.315 24.209C21.339 23.478 21.675 23.13 22.406 23.13H25.716C26.544 23.13 26.688 23.705 26.688 23.993C26.688 24.281 26.544 24.856 25.716 24.856H23.15L23.078 26.2C23.33 26.14 23.678 26.116 23.929 26.116C25.632 26.116 27 27.027 27 28.814C27 30.878 25.393 31.849 23.726 31.849C22.694 31.849 21.759 31.465 21.207 30.89C21.015 30.686 20.871 30.397 20.871 30.122C20.871 29.606 21.279 29.223 21.807 29.223C22.046 29.223 22.251 29.282 22.622 29.678C22.886 29.954 23.258 30.146 23.702 30.146C24.385 30.146 24.973 29.727 24.973 28.91C24.973 27.903 24.062 27.615 23.234 27.615C22.874 27.615 22.61 27.651 22.406 27.688C22.227 27.724 22.094 27.747 21.951 27.747C21.734 27.747 21.171 27.663 21.207 26.872L21.315 24.209Z" fill="white"></path>
</g>
<defs>
<clipPath id="clip0_1240_1727">
<rect width="30" height="34" fill="white"></rect>
</clipPath>
</defs>
</svg>