<svg class="svg" xmlns="http://www.w3.org/2000/svg" width="216" height="76" viewBox="0 0 216 76" fill="none">
<path d="M4.10468 33.9099C12.3026 20.0154 25.8202 8.3601 41.4433 3.73606C45.4527 2.54926 49.798 1.89988 53.8746 3.10907C57.9511 4.31826 60.8741 7.31885 62.9236 10.8457C67.3698 18.4703 68.5793 27.7743 70.752 36.2051C72.9246 44.6358 75.7917 52.1821 81.3465 58.5863C86.0279 63.9829 92.1091 68.1143 98.6607 70.9245C112.85 77.0153 128.865 77.3064 143.682 73.4885C161.646 68.8532 177.661 59.0006 192.914 48.756C194.807 47.4797 196.7 46.1921 198.581 44.8933C199.208 44.4567 199.847 43.7177 198.962 43.1803C198.144 42.6765 196.577 43.1131 195.849 43.5946C180.483 53.7271 165.039 64.4643 147.266 69.9729C132.584 74.5297 116.647 74.8208 102.334 68.6965C95.7377 65.875 89.7236 61.7436 85.0871 56.2239C79.5098 49.5846 76.822 41.4001 74.7613 33.1149C72.7006 24.8297 71.2335 15.3801 66.3282 8.02421C64.066 4.63176 60.8853 2.07902 56.9656 0.869832C52.7546 -0.428929 48.2301 -0.115435 43.9855 0.780262C35.8436 2.49328 27.9257 6.50153 21.1501 11.2487C14.3745 15.9959 8.31564 21.8963 3.48872 28.6812C2.30159 30.3495 1.20406 32.0625 0.162516 33.8203C-0.879023 35.5781 3.39913 35.1078 4.10468 33.9099Z" fill="url(#paint0_linear_2108_3605)"></path>
<path d="M184.078 42.2846C188.412 41.2546 192.746 40.2021 197.081 39.1609L203.307 37.6606C205.155 37.2127 207.171 36.5522 209.097 36.7201C213.768 37.112 210.576 42.8444 209.534 45.1397C207.765 49.0135 205.816 52.7979 203.744 56.515C202.77 58.2616 207.003 57.8026 207.698 56.6046C210.128 52.3948 212.323 48.0731 214.305 43.6394C215.123 41.8032 216.276 39.7431 215.94 37.6606C215.649 35.8468 214.048 34.8615 212.39 34.4809C210.318 34.0106 208.089 34.3465 206.04 34.7608C203.565 35.2534 201.124 35.9028 198.671 36.4962C193.62 37.7166 188.558 38.9258 183.507 40.1685C182.891 40.3141 181.446 40.9299 181.681 41.792C181.917 42.6541 183.496 42.419 184.078 42.2846Z" fill="url(#paint1_linear_2108_3605)"></path>
<defs>
<linearGradient id="paint0_linear_2108_3605" x1="216.007" y1="37.9958" x2="8.96767" y2="21.1686" gradientUnits="userSpaceOnUse">
<stop stop-color="white"></stop>
<stop offset="1" stop-color="white" stop-opacity="0"></stop>
</linearGradient>
<linearGradient id="paint1_linear_2108_3605" x1="216.007" y1="37.9958" x2="8.96767" y2="21.1686" gradientUnits="userSpaceOnUse">
<stop stop-color="white"></stop>
<stop offset="1" stop-color="white" stop-opacity="0"></stop>
</linearGradient>
</defs>
</svg>