<svg xmlns="http://www.w3.org/2000/svg" width="30" height="34" viewBox="0 0 30 34" fill="none">
<g clip-path="url(#clip0_1240_1692)">
<path d="M30 22.499C30 23.599 29.251 24.999 28.335 25.61L16.665 33.39C15.749 34 14.251 34 13.335 33.39L1.665 25.61C0.749 24.999 0 23.6 0 22.499V11.501C0 10.401 0.749 9.00097 1.665 8.38997L13.335 0.609966C14.251 -3.41833e-05 15.749 -3.41833e-05 16.665 0.609966L28.335 8.38997C29.251 9.00097 30 10.4 30 11.501V22.499Z" fill="#C94E4B"></path>
<path d="M20.089 18.283C17.668 15.321 12.803 15.163 10.154 17.891C8.76504 19.322 8.12304 21.126 9.32704 22.879C10.273 24.257 11.407 24.733 13.018 24.327C13.521 24.201 14.038 24.056 14.615 24.056H14.897C15.451 24.114 15.943 24.323 16.405 24.513C16.707 24.637 17.016 24.763 17.34 24.818C18.049 24.947 18.81 24.56 19.395 24.191C21.619 22.786 21.699 20.252 20.089 18.283ZM11.331 13.224C11.772 13.438 12.264 13.565 12.754 13.584C14.913 13.584 15.493 6.74797 12.948 7.17697C11.705 7.38597 10.808 8.86097 10.286 9.88097C9.58304 11.258 9.80504 12.485 11.331 13.224ZM10.714 15.419C10.6 14.171 8.50904 11.366 7.03004 12.403C5.52204 13.546 5.70204 16.729 7.36404 17.709C8.53904 18.401 10.595 16.573 10.714 15.419C10.682 15.077 10.629 16.235 10.714 15.419ZM16.688 13.764C17.893 13.943 19.878 13.229 19.933 11.775C19.933 10.401 18.316 6.84097 16.509 7.50597C14.775 8.06197 14.81 13.486 16.688 13.764ZM23.988 14.536C23.921 13.755 23.574 13.028 22.999 12.494C22.202 11.82 21.1 12.776 20.561 13.335C19.535 14.397 18.718 15.619 19.856 16.877C20.41 17.49 21.511 18.37 22.412 18.008C23.598 17.533 24.086 15.668 23.988 14.536Z" fill="white"></path>
<path d="M15 1.15198C15.429 1.15198 15.834 1.25798 16.11 1.44198L27.78 9.22198C28.419 9.64798 29 10.734 29 11.501V22.499C29 23.266 28.419 24.352 27.781 24.778L16.111 32.558C15.835 32.742 15.43 32.848 15.001 32.848C14.572 32.848 14.167 32.742 13.891 32.558L2.221 24.778C1.581 24.352 1 23.266 1 22.499V11.501C1 10.734 1.581 9.64798 2.219 9.22198L13.889 1.44198C14.166 1.25798 14.571 1.15198 15 1.15198ZM15 0.151978C14.397 0.151978 13.793 0.304978 13.335 0.609978L1.665 8.38998C0.749 9.00098 0 10.4 0 11.501V22.499C0 23.599 0.749 24.999 1.665 25.61L13.335 33.39C13.793 33.695 14.396 33.848 15 33.848C15.604 33.848 16.207 33.695 16.665 33.39L28.335 25.61C29.251 24.999 30 23.6 30 22.499V11.501C30 10.401 29.251 9.00098 28.335 8.38998L16.665 0.609978C16.207 0.304978 15.603 0.151978 15 0.151978Z" fill="#C94E4B"></path>
<path d="M28.767 27.061C29.159 26.564 29.385 25.936 29.385 25.253C29.385 23.252 27.746 21.854 25.399 21.854C24.187 21.854 23.055 22.297 22.318 23.029C21.902 22.307 21.157 21.962 20.407 21.962C19.905 21.962 19.412 22.141 18.899 22.51L17.153 23.786C16.553 24.231 16.252 24.771 16.252 25.397C16.252 26.449 17.065 27.272 18.104 27.272C18.283 27.272 18.464 27.245 18.639 27.194V30.566C18.639 32.028 19.679 32.693 20.646 32.693C21.282 32.693 21.943 32.398 22.326 31.786C23.128 32.442 24.167 32.801 25.386 32.801C27.474 32.801 29.588 31.53 29.588 29.102C29.589 28.324 29.282 27.604 28.767 27.061Z" fill="#C94E4B"></path>
<path d="M19.483 23.323C19.867 23.047 20.167 22.963 20.407 22.963C20.839 22.963 21.654 23.143 21.654 24.378V30.567C21.654 31.538 20.97 31.694 20.646 31.694C20.323 31.694 19.639 31.538 19.639 30.567V25.338L18.727 26.046C18.511 26.214 18.284 26.274 18.104 26.274C17.624 26.274 17.252 25.902 17.252 25.399C17.252 25.135 17.371 24.872 17.743 24.596L19.483 23.323ZM24.127 27.173C24.127 26.921 24.247 26.393 25.015 26.393C26.023 26.393 26.334 25.925 26.334 25.434C26.334 24.822 25.818 24.498 25.267 24.498C24.847 24.498 24.559 24.666 24.259 25.026C24.079 25.242 23.852 25.422 23.48 25.422C22.989 25.422 22.592 25.063 22.592 24.571C22.592 24.295 22.689 24.079 22.941 23.803C23.492 23.203 24.427 22.855 25.399 22.855C26.898 22.855 28.385 23.623 28.385 25.254C28.385 26.189 27.785 26.885 26.958 27.101V27.137C27.929 27.365 28.589 28.157 28.589 29.104C28.589 30.963 26.945 31.803 25.387 31.803C24.308 31.803 23.396 31.491 22.748 30.855C22.473 30.579 22.352 30.315 22.352 30.016C22.352 29.5 22.772 29.117 23.263 29.117C23.575 29.117 23.79 29.261 24.151 29.62C24.499 29.968 24.846 30.112 25.291 30.112C25.866 30.112 26.526 29.824 26.526 29.033C26.526 28.433 26.034 27.966 25.014 27.966C24.247 27.964 24.127 27.436 24.127 27.173Z" fill="white"></path>
</g>
<defs>
<clipPath id="clip0_1240_1692">
<rect width="30" height="34" fill="white"></rect>
</clipPath>
</defs>
</svg>