<svg class="svg_center" xmlns="http://www.w3.org/2000/svg" width="56" height="64" viewBox="0 0 56 64" fill="none">
<path d="M39.9525 63.8234L56 59.7963L49.0525 12.3364C49.033 12.1969 48.9668 12.0683 48.8649 11.972C48.7631 11.8756 48.6317 11.8172 48.4925 11.8066L43.75 11.7536L39.9525 8.02672V63.841V63.8234ZM38.2025 7.46151L36.3125 8.06205C36.0769 7.28812 35.7723 6.53733 35.4025 5.81888C34.055 3.22245 32.0775 1.84476 29.715 1.84476H29.6975L29.2075 1.88008L28.98 1.6328C28.4811 1.08332 27.8675 0.652524 27.1835 0.371509C26.4996 0.0904946 25.7623 -0.0337219 25.025 0.00782905C21.9625 0.0961428 18.9 2.33931 16.415 6.31343C14.665 9.12181 13.335 12.6367 12.9675 15.3568L6.9125 17.2467C5.1275 17.8119 5.075 17.8825 4.83 19.5605L0 57.2528L38.675 64V7.39086C38.5 7.39086 38.325 7.44385 38.2025 7.46151ZM29.2775 10.2699L22.75 12.3011C23.3302 9.92132 24.4572 7.71279 26.04 5.8542C26.6 5.25367 27.3525 4.60015 28.2625 4.21157C29.12 6.01317 29.3125 8.53894 29.2775 10.2699ZM25.0775 2.07437C25.8125 2.07437 26.425 2.21567 26.9325 2.56893C26.11 2.99284 25.305 3.62869 24.5525 4.44118C22.4737 6.88268 21.0782 9.83992 20.51 13.0076L15.155 14.6679C16.205 9.68702 20.3525 2.21567 25.095 2.07437H25.0775ZM19.11 30.4584C19.32 33.779 27.965 34.5209 28.455 42.2925C28.84 48.4038 25.235 52.5899 20.055 52.9255C13.8425 53.3317 10.4125 49.6225 10.4125 49.6225L11.725 43.9704C11.725 43.9704 15.1725 46.5845 17.9375 46.4079C18.2686 46.3992 18.5945 46.3229 18.8955 46.1835C19.1965 46.0441 19.4664 45.8445 19.6889 45.5969C19.9113 45.3493 20.0817 45.0587 20.1898 44.7427C20.2978 44.4267 20.3413 44.0919 20.3175 43.7585C20.055 39.4311 13.0025 39.696 12.5475 32.5603C12.18 26.5726 16.0825 20.5143 24.675 19.9667C28 19.7548 29.68 20.6026 29.68 20.6026L27.72 28.021C27.72 28.021 25.5325 27.0142 22.925 27.1908C19.11 27.4381 19.075 29.8579 19.11 30.4584ZM31.325 9.61637C31.3301 7.69187 31.0105 5.78054 30.38 3.96429C32.725 4.42352 33.88 7.09059 34.3525 8.68024L31.325 9.61637Z" fill="white"></path>
</svg>