<svg xmlns="http://www.w3.org/2000/svg" width="30" height="34" viewBox="0 0 30 34" fill="none">
<g clip-path="url(#clip0_1240_1734)">
<path d="M30 22.499C30 23.599 29.251 24.999 28.335 25.61L16.665 33.39C15.749 34 14.251 34 13.335 33.39L1.665 25.61C0.749 24.999 0 23.6 0 22.499V11.501C0 10.401 0.749 9.00097 1.665 8.38997L13.335 0.609966C14.251 -3.41833e-05 15.749 -3.41833e-05 16.665 0.609966L28.335 8.38997C29.251 9.00097 30 10.4 30 11.501V22.499Z" fill="#C94E4B"></path>
<path d="M28 15V11H25V10H24V7H20V8.5C20 9.328 19.328 10 18.5 10C17.672 10 17 9.328 17 8.5V7H13V8.5C13 9.328 12.328 10 11.5 10C10.672 10 10 9.328 10 8.5V7H6V10H5V11H2V15H3.5C4.328 15 5 15.672 5 16.5C5 17.328 4.328 18 3.5 18H2V22H5V23H6V26H10V24.5C10 23.672 10.672 23 11.5 23C12.328 23 13 23.672 13 24.5V26H17V24.5C17 23.672 17.672 23 18.5 23C19.328 23 20 23.672 20 24.5V26H24V23H25V22H28V18H26.5C25.672 18 25 17.328 25 16.5C25 15.672 25.672 15 26.5 15H28ZM24 22H6V11H24V22ZM8 13H12V14H8V13ZM8 13H9V16H8V13ZM8 15H11V16H8V15ZM11 15H12V18H11V15ZM8 17H12V18H8V17ZM13 14H17V15H13V14ZM13 15H14V17H13V15ZM13 17H17V18H13V17Z" fill="white"></path>
<path d="M15 1.15198C15.429 1.15198 15.834 1.25798 16.11 1.44198L27.78 9.22198C28.419 9.64798 29 10.734 29 11.501V22.499C29 23.266 28.419 24.352 27.781 24.778L16.111 32.558C15.835 32.742 15.43 32.848 15.001 32.848C14.572 32.848 14.167 32.742 13.891 32.558L2.221 24.778C1.581 24.352 1 23.266 1 22.499V11.501C1 10.734 1.581 9.64798 2.219 9.22198L13.889 1.44198C14.166 1.25798 14.571 1.15198 15 1.15198ZM15 0.151978C14.397 0.151978 13.793 0.304978 13.335 0.609978L1.665 8.38998C0.749 9.00098 0 10.4 0 11.501V22.499C0 23.599 0.749 24.999 1.665 25.61L13.335 33.39C13.793 33.695 14.396 33.848 15 33.848C15.604 33.848 16.207 33.695 16.665 33.39L28.335 25.61C29.251 24.999 30 23.6 30 22.499V11.501C30 10.401 29.251 9.00098 28.335 8.38998L16.665 0.609978C16.207 0.304978 15.603 0.151978 15 0.151978Z" fill="#C94E4B"></path>
<path d="M27.7959 25.148C27.7959 23.147 26.1569 21.75 23.8099 21.75C22.5409 21.75 21.3469 22.224 20.6149 23.02C20.3289 23.332 20.0039 23.777 20.0039 24.464C20.0039 25.44 20.7349 26.216 21.6999 26.307C21.5909 26.549 21.5389 26.811 21.5389 27.067C21.5389 27.39 21.6219 27.723 21.7939 28.013L21.6749 28.009C20.6209 28.009 19.7629 28.861 19.7629 29.909C19.7629 30.479 19.9949 31 20.4529 31.456C21.2809 32.269 22.4349 32.696 23.7979 32.696C25.8859 32.696 27.9999 31.426 27.9999 28.998C27.9999 28.218 27.6939 27.498 27.1779 26.955C27.5699 26.459 27.7959 25.831 27.7959 25.148Z" fill="#C94E4B"></path>
<path d="M22.5389 27.067C22.5389 26.815 22.6589 26.287 23.4259 26.287C24.4339 26.287 24.7459 25.82 24.7459 25.328C24.7459 24.716 24.2299 24.392 23.6779 24.392C23.2579 24.392 22.9709 24.56 22.6709 24.92C22.4909 25.136 22.2629 25.316 21.8909 25.316C21.3989 25.316 21.0039 24.956 21.0039 24.464C21.0039 24.188 21.0999 23.972 21.3519 23.697C21.9029 23.097 22.8389 22.75 23.8099 22.75C25.3099 22.75 26.7959 23.517 26.7959 25.148C26.7959 26.084 26.1969 26.779 25.3689 26.995V27.031C26.3409 27.258 26.9999 28.05 26.9999 28.998C26.9999 30.857 25.3569 31.696 23.7979 31.696C22.7189 31.696 21.8069 31.384 21.1599 30.749C20.8839 30.473 20.7639 30.209 20.7639 29.909C20.7639 29.393 21.1839 29.009 21.6749 29.009C21.9869 29.009 22.2029 29.154 22.5629 29.513C22.9109 29.861 23.2579 30.005 23.7019 30.005C24.2779 30.005 24.9369 29.717 24.9369 28.925C24.9369 28.326 24.4459 27.858 23.4259 27.858C22.6589 27.858 22.5389 27.331 22.5389 27.067Z" fill="white"></path>
</g>
<defs>
<clipPath id="clip0_1240_1734">
<rect width="30" height="34" fill="white"></rect>
</clipPath>
</defs>
</svg>