<svg xmlns="http://www.w3.org/2000/svg" width="22" height="22" viewBox="0 0 22 22" fill="none">
<path d="M21.9996 5.84644H8.07658C6.84507 5.84644 5.84458 6.84507 5.84458 8.07845V21.9996C2.61767 21.9996 0 19.3819 0 16.1532V5.84644C0 2.61767 2.61767 0 5.84458 0H16.1532C19.3819 0 21.9996 2.61767 21.9996 5.84644Z" fill="currentColor"></path>
<path d="M16.1528 21.998H16.1342V18.4115C16.1342 17.1539 17.1533 16.1348 18.4109 16.1348H21.9974V16.1515C21.9974 19.3803 19.3797 21.998 16.1509 21.998H16.1528Z" fill="currentColor"></path>
<path d="M21.9999 8.07617V13.9226H16.1535C14.922 13.9226 13.9215 14.9212 13.9215 16.1528V21.9992H8.0769L8.0769 10.3082C8.0769 9.07666 9.07553 8.07617 10.307 8.07617H21.9981H21.9999Z" fill="currentColor"></path>
</svg>