<svg xmlns="http://www.w3.org/2000/svg" width="28" height="29" viewBox="0 0 28 29" fill="none">
<rect y="0.5" width="28" height="28" rx="14" fill="url(#paint0_linear_2101_2751)"></rect>
<path d="M12.2121 18.3459C12.1071 18.4448 11.9638 18.5 11.815 18.5C11.6662 18.5 11.523 18.4448 11.418 18.3459L8.24682 15.3752C7.91773 15.067 7.91773 14.5672 8.24682 14.2595L8.6439 13.8875C8.9731 13.5793 9.50613 13.5793 9.83522 13.8875L11.8151 15.7419L17.1648 10.7312C17.494 10.4229 18.0275 10.4229 18.3561 10.7312L18.7532 11.1032C19.0823 11.4114 19.0823 11.9112 18.7532 12.2189L12.2121 18.3459Z" fill="url(#paint1_linear_2101_2751)"></path>
<defs>
<linearGradient id="paint0_linear_2101_2751" x1="0" y1="0.5" x2="33.7422" y2="13.0018" gradientUnits="userSpaceOnUse">
<stop stop-color="#202020"></stop>
<stop offset="1" stop-color="#101010"></stop>
</linearGradient>
<linearGradient id="paint1_linear_2101_2751" x1="9.39241" y1="18.5" x2="19.0361" y2="16.2976" gradientUnits="userSpaceOnUse">
<stop stop-color="#CE1BFB"></stop>
<stop offset="1" stop-color="#35E6CC"></stop>
</linearGradient>
</defs>
</svg>