<svg class="hdt-icon" xmlns="http://www.w3.org/2000/svg" width="18" height="18" viewBox="0 0 18 18" fill="currentColor">
<path d="M5.00052 5.72761C4.92037 6.58261 4.86412 8.09574 5.36896 8.7398C5.36896 8.7398 5.13131 7.07761 7.26177 4.99214C8.11959 4.15261 8.31787 3.01074 8.01834 2.15433C7.84818 1.66917 7.5374 1.26839 7.2674 0.988549C7.1099 0.824018 7.23084 0.552612 7.46006 0.562455C8.84662 0.62433 11.0938 1.00964 12.0486 3.40589C12.4677 4.45777 12.4986 5.5448 12.299 6.65011C12.1724 7.35605 11.7224 8.92542 12.749 9.11808C13.4816 9.25589 13.836 8.67371 13.9949 8.25464C14.061 8.08027 14.2902 8.03667 14.414 8.17589C15.6515 9.58355 15.7569 11.2415 15.501 12.6689C15.006 15.4279 12.2118 17.4361 9.43584 17.4361C5.96802 17.4361 3.20756 15.4518 2.49177 11.8603C2.20349 10.4104 2.34974 7.54167 4.58568 5.51667C4.75162 5.3648 5.02302 5.4998 5.00052 5.72761Z" fill="url(#paint0_radial_1405_1344)"></path>
<path d="M10.7029 10.8872C9.42466 9.24188 9.99701 7.36453 10.3106 6.61641C10.3528 6.51797 10.2403 6.42516 10.1517 6.48563C9.60185 6.85969 8.47544 7.74 7.95091 8.97891C7.24076 10.6538 7.29138 11.4736 7.71185 12.4748C7.96497 13.0781 7.67107 13.2061 7.52341 13.2286C7.37997 13.2511 7.24779 13.1555 7.14232 13.0556C6.8389 12.7643 6.62269 12.3942 6.51794 11.9869C6.49544 11.8997 6.38154 11.8758 6.32951 11.9475C5.93576 12.4917 5.73185 13.365 5.72201 13.9823C5.69107 15.8906 7.26747 17.4375 9.17435 17.4375C11.5776 17.4375 13.3284 14.7797 11.9475 12.5578C11.5467 11.9109 11.1698 11.4877 10.7029 10.8872Z" fill="url(#paint1_radial_1405_1344)"></path>
<defs>
<radialGradient id="paint0_radial_1405_1344" cx="0" cy="0" r="1" gradientUnits="userSpaceOnUse" gradientTransform="translate(8.74899 17.4798) rotate(-179.751) scale(9.92639 16.2872)">
<stop offset="0.314" stop-color="#FF9800"></stop>
<stop offset="0.662" stop-color="#FF6D00"></stop>
<stop offset="0.972" stop-color="#F44336"></stop>
</radialGradient>
<radialGradient id="paint1_radial_1405_1344" cx="0" cy="0" r="1" gradientUnits="userSpaceOnUse" gradientTransform="translate(9.30653 7.60196) rotate(90.5787) scale(10.3861 7.81629)">
<stop offset="0.214" stop-color="#FFF176"></stop>
<stop offset="0.328" stop-color="#FFF27D"></stop>
<stop offset="0.487" stop-color="#FFF48F"></stop>
<stop offset="0.672" stop-color="#FFF7AD"></stop>
<stop offset="0.793" stop-color="#FFF9C4"></stop>
<stop offset="0.822" stop-color="#FFF8BD" stop-opacity="0.804"></stop>
<stop offset="0.863" stop-color="#FFF6AB" stop-opacity="0.529"></stop>
<stop offset="0.91" stop-color="#FFF38D" stop-opacity="0.209"></stop>
<stop offset="0.941" stop-color="#FFF176" stop-opacity="0"></stop>
</radialGradient>
</defs>
</svg>