<svg xmlns="http://www.w3.org/2000/svg" width="179" height="56" viewBox="0 0 179 56" fill="none">
<g clip-path="url(#clip0_1090_1373)">
<path d="M22.3564 19.9818V25.9636H36.7922C36.409 29.2727 35.2592 31.8182 33.4707 33.4727C31.4267 35.5091 28.1052 37.8 22.3564 37.8C13.5416 37.8 6.64304 30.6727 6.64304 21.8909C6.64304 13.1091 13.4138 5.98182 22.3564 5.98182C27.0832 5.98182 30.6602 7.89091 33.2152 10.3091L37.431 6.10909C33.854 2.67273 28.9994 0 22.3564 0C10.2201 0 0 9.8 0 21.8909C0 33.9818 10.2201 43.7818 22.3564 43.7818C28.8717 43.7818 33.854 41.6182 37.6865 37.6727C41.6468 33.7273 42.9243 28.1273 42.9243 23.6727C42.9243 22.2727 42.7965 21 42.6688 19.9818H22.3564Z" fill="#4285F4"></path>
<path d="M60.8094 15.0234C53.0166 15.0234 46.5013 21.0053 46.5013 29.1507C46.5013 37.2962 52.8888 43.278 60.8094 43.278C68.7299 43.278 75.1175 37.4234 75.1175 29.278C75.1175 21.0053 68.7299 15.0234 60.8094 15.0234ZM60.8094 37.8052C56.4658 37.8052 52.7611 34.2416 52.7611 29.278C52.7611 24.1871 56.4658 20.7507 60.8094 20.7507C65.1529 20.7507 68.8577 24.1871 68.8577 29.278C68.8577 34.2416 65.1529 37.8052 60.8094 37.8052Z" fill="#EA4335"></path>
<path d="M130.689 18.2053H130.434C129.028 16.5507 126.346 15.0234 122.896 15.0234C115.742 15.0234 109.61 21.1325 109.61 29.1507C109.61 37.0416 115.742 43.278 122.896 43.278C126.346 43.278 129.028 41.7507 130.434 40.0962H130.689V42.1325C130.689 47.478 127.751 50.4053 123.152 50.4053C119.319 50.4053 117.02 47.7325 115.998 45.3143L110.632 47.6053C112.165 51.2962 116.381 56.0053 123.28 56.0053C130.561 56.0053 136.821 51.678 136.821 41.2416V15.7871H130.945V18.2053H130.689ZM123.535 37.8053C119.191 37.8053 115.998 34.1143 115.998 29.278C115.998 24.3143 119.319 20.7507 123.535 20.7507C127.751 20.7507 131.072 24.4416 131.072 29.4053C131.2 34.2416 127.879 37.8053 123.535 37.8053Z" fill="#4285F4"></path>
<path d="M92.6195 15.0234C84.8267 15.0234 78.3114 21.0053 78.3114 29.1507C78.3114 37.2962 84.6989 43.278 92.6195 43.278C100.54 43.278 106.928 37.4234 106.928 29.278C106.928 21.0053 100.54 15.0234 92.6195 15.0234ZM92.6195 37.8052C88.276 37.8052 84.5712 34.2416 84.5712 29.278C84.5712 24.1871 88.276 20.7507 92.6195 20.7507C96.963 20.7507 100.668 24.1871 100.668 29.278C100.668 34.2416 96.963 37.8052 92.6195 37.8052Z" fill="#FBBC05"></path>
<path d="M141.548 0.628906H147.68V43.3926H141.548V0.628906Z" fill="#34A853"></path>
<path d="M166.587 37.8052C163.393 37.8052 161.222 36.4052 159.689 33.478L178.724 25.7143L178.085 24.0598C176.935 20.878 173.23 15.0234 165.948 15.0234C158.667 15.0234 152.535 20.7507 152.535 29.1507C152.535 37.0416 158.539 43.278 166.587 43.278C173.103 43.278 176.807 39.3325 178.468 37.0416L173.614 33.8598C171.953 36.278 169.781 37.8052 166.587 37.8052ZM166.204 20.3689C168.759 20.3689 170.931 21.6416 171.57 23.4234L158.794 28.7689C158.667 22.9143 163.01 20.3689 166.204 20.3689Z" fill="#EA4335"></path>
</g>
<defs>
<clipPath id="clip0_1090_1373">
<rect width="179" height="56" fill="white"></rect>
</clipPath>
</defs>
</svg>