<svg width="104" height="32" viewBox="0 0 104 32" fill="currentColor" xmlns="http://www.w3.org/2000/svg">
<path id="bayleys" fill-rule="evenodd" clip-rule="evenodd" stroke-dasharray="1200 1000" d="M21.71 30.6424L12.7888 19.8206L21.516 8.99875H13.7206L7.24306 17.6872V1.93935H0.608398V30.6424H7.24112V21.4497L13.7206 30.6424H21.7109H21.71ZM28.7655 8.72723C27.073 8.70139 25.4092 9.16617 23.9752 10.0654C22.5236 11.0054 21.3672 12.3366 20.6394 13.9054C19.7855 15.7578 19.3675 17.7814 19.4176 19.8206C19.3715 21.8531 19.7893 23.8695 20.6394 25.7163C21.363 27.293 22.5199 28.6315 23.9752 29.5757C25.4092 30.475 27.073 30.9397 28.7655 30.9139C30.2661 30.9555 31.7471 30.565 33.0321 29.789C34.2032 29.0604 35.1235 27.9912 35.6697 26.7248V30.6424H42.2637V8.99487H35.6697V12.9124C35.1233 11.6462 34.203 10.577 33.0321 9.8482C31.7466 9.07376 30.2657 8.6847 28.7655 8.72723ZM30.8988 14.5454C31.5387 14.5245 32.1756 14.64 32.7675 14.8841C33.3593 15.1281 33.8924 15.4953 34.3315 15.9612C35.2666 17.0223 35.7472 18.4084 35.6697 19.8206C35.7406 21.226 35.2605 22.6036 34.3315 23.6606C33.8954 24.1315 33.3633 24.5034 32.7711 24.751C32.1788 24.9986 31.5404 25.1161 30.8988 25.0957C30.26 25.1221 29.623 25.0112 29.0308 24.7703C28.4386 24.5294 27.905 24.1642 27.4661 23.6994C26.5478 22.623 26.0821 21.2329 26.1667 19.8206C26.0822 18.4083 26.5479 17.0182 27.4661 15.9418C27.905 15.477 28.4386 15.1118 29.0308 14.8709C29.623 14.63 30.26 14.519 30.8988 14.5454ZM44.5715 1.93935V30.6424H51.2043V1.93935H44.5715ZM54.0474 1.93935V30.6424H60.6801V1.93935H54.0474ZM84.139 19.2387C84.1772 17.3241 83.716 15.4325 82.8009 13.7503C81.9249 12.1759 80.6113 10.8892 79.019 10.046C77.2577 9.17521 75.3186 8.72383 73.3537 8.7272C71.3888 8.73056 69.4514 9.18858 67.693 10.0654C66.057 10.9382 64.7147 12.2739 63.8336 13.9054C62.8784 15.7277 62.4045 17.7638 62.4566 19.8206C62.409 21.873 62.8898 23.9033 63.853 25.7163C64.7369 27.3506 66.0781 28.6918 67.7124 29.5757C69.3435 30.3999 71.136 30.8549 72.9626 30.9086C74.7893 30.9622 76.6055 30.6131 78.2821 29.886C79.7032 29.242 80.9523 28.2719 81.9281 27.0545C82.8783 25.8658 83.5181 24.4596 83.7899 22.9624H76.7693C76.5721 23.7234 76.1204 24.3941 75.4893 24.863C74.7797 25.3741 73.9196 25.6335 73.0457 25.6C71.9854 25.6391 70.9529 25.2554 70.1754 24.5333C69.3265 23.5659 68.8821 22.309 68.9342 21.023H83.9451C84.068 20.436 84.1329 19.8384 84.139 19.2387ZM77.4297 18.2303H68.974C68.9896 17.0326 69.4775 15.8895 70.3315 15.0497C71.164 14.314 72.2467 13.9254 73.357 13.9636C74.4336 13.9318 75.4815 14.3135 76.2855 15.0303C76.7 15.4465 77.0175 15.9492 77.2153 16.5024C77.4131 17.0555 77.4863 17.6455 77.4297 18.2303ZM93.3124 8.72723C91.0847 8.58676 88.8773 9.22429 87.0675 10.5309C86.3568 11.0894 85.7867 11.8065 85.4028 12.6249C85.0189 13.4432 84.8318 14.34 84.8566 15.2436C84.7841 16.5245 85.1844 17.7874 85.9815 18.7927C86.6994 19.6368 87.6204 20.2843 88.6578 20.6739C89.9479 21.1333 91.2703 21.4963 92.6142 21.76C93.8002 21.995 94.962 22.3391 96.0847 22.7878C96.4086 22.9108 96.6858 23.1322 96.8771 23.421C97.0685 23.7098 97.1644 24.0513 97.1514 24.3975C97.1612 24.6556 97.1141 24.9128 97.0136 25.1507C96.913 25.3886 96.7615 25.6016 96.5696 25.7745C96.0858 26.1556 95.4772 26.3423 94.8629 26.2981C93.9216 26.3398 92.9913 26.0818 92.2059 25.5612C91.8645 25.314 91.5816 24.9947 91.3772 24.6261C91.1727 24.2574 91.0518 23.8484 91.0229 23.4278H84.6229C84.7583 24.5215 85.1133 25.5766 85.6665 26.5298C86.2197 27.4829 86.9598 28.3145 87.8423 28.9745C89.9131 30.3591 92.3751 31.0392 94.8629 30.9139C96.4021 30.9499 97.9325 30.6728 99.3613 30.0993C100.524 29.6385 101.532 28.8586 102.27 27.8497C102.946 26.8845 103.299 25.7305 103.279 24.5527C103.348 23.2362 102.934 21.9398 102.115 20.9066C101.379 20.0297 100.431 19.3555 99.3613 18.9478C98.0303 18.4674 96.6699 18.0723 95.2886 17.7648C94.1384 17.5454 93.014 17.2074 91.9335 16.7563C91.622 16.644 91.3526 16.4386 91.1618 16.168C90.971 15.8974 90.868 15.5747 90.8668 15.2436C90.8519 14.9849 90.8966 14.7262 90.9975 14.4874C91.0984 14.2487 91.2527 14.0363 91.4486 13.8666C91.9433 13.5105 92.5472 13.3389 93.1553 13.3818C94.0137 13.3503 94.8565 13.6176 95.5398 14.1381C96.1843 14.6596 96.6183 15.3967 96.7616 16.2133H102.968C102.627 14.091 101.532 12.1628 99.884 10.783C98.0088 9.33585 95.678 8.60673 93.3124 8.72723Z"></path>
</svg>