<svg xmlns="http://www.w3.org/2000/svg" width="30" height="34" viewBox="0 0 30 34" fill="none">
<g clip-path="url(#clip0_1240_1700)">
<path d="M30 22.3C30 23.4 29.3 24.8 28.3 25.4L16.6 33.2001C15.7 33.8 14.2 33.8 13.3 33.2001L1.7 25.5C0.8 24.9 0 23.5 0 22.4V11.4C0 10.3 0.7 8.90005 1.7 8.30005L13.4 0.500049C14.3 -0.0999512 15.8 -0.0999512 16.7 0.500049L28.4 8.30005C29.3 8.90005 30.1 10.3 30.1 11.4V22.3H30Z" fill="#8360A8"></path>
<path d="M15 15.5C19.4 15.5 23 11.9 23 7.50005C23 6.30005 22.7 5.20005 22.3 4.20005L20.2 2.80005C21.3 4.00005 22 5.70005 22 7.50005C22 11.4 18.9 14.5 15 14.5C11.1 14.5 8 11.4 8 7.50005C8 5.70005 8.7 4.00005 9.8 2.80005L7.7 4.20005C7.3 5.20005 7 6.30005 7 7.50005C7 11.9 10.6 15.5 15 15.5Z" fill="white"></path>
<path d="M15 27.3C14.3 27.3 13.7 27.2001 13.2 27C12.8 26.8 12.4 26.5 12 26L11.7 25.9L9.30002 27H9.20001C9.00001 27 8.80001 26.9001 8.70001 26.7001C8.60001 26.5 8.50002 26.2001 8.60002 26L11.1 19V16.4C11.1 11.2 13.6 6.30005 15.2 6.30005C16.8 6.30005 19.3 11.2 19.3 16.4V19L21.8 26C21.9 26.2001 21.8 26.5 21.7 26.7001C21.6 26.9001 21.4 27 21.2 27H21L18.6 26L18 26.1C17.7 26.6 17.3 27 16.8 27.1C16.3 27.2 15.7 27.3 15 27.3Z" fill="white"></path>
<path d="M15 6.80005C16 6.80005 18.6 11.1 18.6 16.4C18.6 17.1 18.6 18.1 18.5 19.1L21 26.2001C21 26.3001 21 26.5 20.9 26.5L18.4 25.4L17.8 25.6C17.5 26.1 17.2 26.4 16.8 26.5C16.4 26.7001 15.8 26.7001 15.2 26.7001C14.6 26.7001 14 26.6 13.6 26.5C13.2 26.4 12.9 26 12.6 25.6L12 25.3L9.50005 26.4C9.00005 26.5 9.00005 26.3001 9.00005 26.2001L11.5 19.1V16.4C11.4 11.1 14 6.80005 15 6.80005ZM15 5.80005C12.7 5.80005 10.4 11.9 10.4 16.4V18.9L8.00005 25.8C7.90005 26.3 8.00005 26.7001 8.20005 27C8.40005 27.3 8.80005 27.5 9.10005 27.5H9.30005L9.50005 27.4L11.7 26.5C12.1 27 12.5 27.4 13 27.6C13.5 27.8 14.2 27.9 14.9 27.9C15.6 27.9 16.3 27.8 16.8 27.6C17.3 27.4 17.7 27.1 18.1 26.6L20.3 27.5L20.5 27.6H20.7C21.1 27.6 21.4 27.4 21.6 27.1C21.8 26.8 21.9 26.3 21.8 26L19.4 19.1V16.6C19.6 11.9 17.3 5.80005 15 5.80005Z" fill="#8360A8"></path>
<path d="M15 17.3C15.8284 17.3 16.5 16.6285 16.5 15.8C16.5 14.9716 15.8284 14.3 15 14.3C14.1716 14.3 13.5 14.9716 13.5 15.8C13.5 16.6285 14.1716 17.3 15 17.3Z" fill="#8360A8"></path>
<path d="M11 9.5C11.5523 9.5 12 9.05228 12 8.5C12 7.94772 11.5523 7.5 11 7.5C10.4477 7.5 10 7.94772 10 8.5C10 9.05228 10.4477 9.5 11 9.5Z" fill="white"></path>
<path d="M13 5.5C13.5523 5.5 14 5.05228 14 4.5C14 3.94772 13.5523 3.5 13 3.5C12.4477 3.5 12 3.94772 12 4.5C12 5.05228 12.4477 5.5 13 5.5Z" fill="white"></path>
<path d="M15 1C15.4 1 15.8 1.1 16.1 1.3L27.8 9.1C28.4 9.5 29 10.6 29 11.4V22.4C29 23.2 28.4 24.3 27.8 24.7L16.1 32.5C15.8 32.7 15.4 32.8 15 32.8C14.6 32.8 14.2 32.7 13.9 32.5L2.2 24.6C1.6 24.2 1 23.1 1 22.3V11.3C1 10.5 1.6 9.4 2.2 9L13.9 1.2C14.2 1.1 14.6 1 15 1ZM15 0C14.4 0 13.8 0.2 13.3 0.5L1.7 8.2C0.7 8.8 0 10.2 0 11.3V22.3C0 23.4 0.7 24.8 1.7 25.4L13.4 33.2C13.9 33.5 14.5 33.7 15.1 33.7C15.7 33.7 16.3 33.5 16.8 33.2L28.5 25.4C29.4 24.8 30.2 23.4 30.2 22.3V11.3C30.2 10.2 29.5 8.8 28.5 8.2L16.7 0.5C16.2 0.2 15.6 0 15 0Z" fill="#8360A8"></path>
<path d="M28.2 32.8C28 32.8 27.6 32.8 27.2 32.4C27 32.2 26.8 31.9 26.8 31.3V30.4L26.3 31.6C26 32.3 25.5 32.7 24.9 32.7C24.3 32.7 23.8 32.3 23.5 31.6L23 30.6V31.4C23 32.4 22.3 32.8 21.7 32.8C21.1 32.8 20.4 32.4 20.4 31.4V26.2C20.4 25.1 21.2 24.6 21.9 24.6C22.6 24.6 23.2 25 23.5 25.9L24.9 29.1L26.3 25.9C26.7 25 27.2 24.6 27.9 24.6C28.7 24.6 29.4 25.1 29.4 26.2V31.4C29.5 32.4 28.8 32.8 28.2 32.8Z" fill="white"></path>
<path d="M28 25.1C28.3 25.1 29 25.3 29 26.2V31.4C29 32.2 28.4 32.3 28.2 32.3C27.9 32.3 27.4 32.2 27.4 31.4V28.1L25.9 31.5C25.6 32.2 25.3 32.3 25 32.3C24.7 32.3 24.3 32.2 24.1 31.5L22.7 28.1V31.4C22.7 32.2 22.2 32.3 21.9 32.3C21.6 32.3 21.1 32.2 21.1 31.4V26.2C21.1 25.2 21.8 25.1 22.1 25.1C22.4 25.1 22.9 25.2 23.3 26.1L25.1 30.4L26.9 26.1C27.2 25.2 27.7 25.1 28 25.1ZM28 24.1C27.1 24.1 26.4 24.6 25.9 25.7L25 27.3L24 25.7C23.5 24.6 22.8 24.1 21.9 24.1C20.9 24.1 19.9 24.8 19.9 26.2V31.4C19.9 32.6 20.8 33.3 21.7 33.3C22.3 33.3 22.9 33 23.3 32.4C23.7 33 24.2 33.3 24.9 33.3C25.6 33.3 26.2 33 26.5 32.3C26.6 32.5 26.7 32.6 26.8 32.7C27.1 33 27.6 33.2 28.1 33.2C29 33.2 29.9 32.6 29.9 31.3V26.1C30 24.7 29 24.1 28 24.1Z" fill="#8360A8"></path>
<path d="M16.5 34V29.3C16.5 28.5 15.8 27.8 15 27.8C14.2 27.8 13.5 28.5 13.5 29.3V34H16.5Z" fill="white"></path>
</g>
<defs>
<clipPath id="clip0_1240_1700">
<rect width="30" height="34" fill="white"></rect>
</clipPath>
</defs>
</svg>