<svg xmlns="http://www.w3.org/2000/svg" width="32" height="36" viewBox="0 0 32 36" fill="none">
<g clip-path="url(#clip0_1240_1684)">
<path d="M31.9936 23.5897C31.9936 24.7476 31.1412 26.2299 30.0773 26.8597L17.6439 35.092C16.689 35.7281 15.0931 35.7281 14.1382 35.092L1.80733 26.8597C0.743442 26.2235 0 24.7476 0 23.5897V11.9794C0 10.8215 0.743442 9.33919 1.80733 8.70937L14.2471 0.477139C15.2021 -0.159046 16.7979 -0.159046 17.7529 0.477139L30.1927 8.70937C31.1476 9.34556 32 10.8215 32 11.9794V23.5897H31.9936Z" fill="#99C267"></path>
<path d="M29.101 26.0835C30.088 25.5045 30.8699 24.1558 30.8699 23.0934V12.5009C30.8699 11.4385 30.0815 10.0898 29.1971 9.51084L17.6866 1.9975C17.2316 1.70486 16.6291 1.55853 16.0203 1.5649V34.0358C16.5907 34.0294 17.1547 33.8831 17.5841 33.6032L29.101 26.0835Z" fill="#80B341"></path>
<path d="M17.5615 21.6556H16.0298V14.7276H15.9785L13.9917 15.9872V14.5876L16.0938 13.2452H17.5551V21.6556H17.5615Z" fill="white"></path>
<path d="M19.797 13.2452H23.0399C24.8793 13.2452 25.783 14.1741 25.783 15.4274C25.783 16.4516 25.1293 17.0242 24.3025 17.215V17.2977C25.2062 17.3423 26.1162 18.093 26.1162 19.3653C26.1162 20.6759 25.1677 21.6556 23.2258 21.6556H19.797V13.2452ZM22.8477 16.8206C23.6488 16.8206 24.2512 16.3625 24.2512 15.6246C24.2512 14.9757 23.7834 14.5049 22.8797 14.5049H21.3287V16.827H22.8477V16.8206ZM22.9823 20.3832C24.0974 20.3832 24.5589 19.9125 24.5589 19.2445C24.5589 18.4938 23.9692 17.9212 23.0271 17.9212H21.3352V20.3832H22.9823Z" fill="white"></path>
<path d="M11.4015 13.519C10.2222 12.1448 6.39607 14.8104 6.4153 18.2458C6.4153 18.284 6.40248 18.3158 6.38325 18.3413C6.36402 18.3667 6.33198 18.3922 6.29994 18.3985C6.26789 18.4049 6.22944 18.4049 6.19739 18.3922C6.16535 18.3794 6.13971 18.354 6.12048 18.3285C5.72313 17.4761 5.67186 16.5091 5.97949 15.6248C5.9923 15.5929 5.9923 15.5548 5.98589 15.5166C5.97308 15.4848 5.94744 15.453 5.9154 15.4339C5.88335 15.4148 5.8449 15.4085 5.81285 15.4148C5.7744 15.4212 5.74235 15.4403 5.72313 15.4721C5.08864 16.1528 4.74255 17.0434 4.74255 17.9659C4.74255 20.3834 6.76138 21.6876 8.45335 21.6494C13.6638 21.5349 12.459 14.7468 11.4015 13.519Z" fill="white"></path>
</g>
<defs>
<clipPath id="clip0_1240_1684">
<rect width="32" height="36" fill="white"></rect>
</clipPath>
</defs>
</svg>