<svg class="cta_icon" xmlns="http://www.w3.org/2000/svg" width="20" height="20" viewBox="0 0 20 20" fill="none">
<path d="M4.16686 11.6667H15.1133C15.9573 11.6667 16.3793 11.6667 16.7153 11.5093C17.0112 11.3707 17.2599 11.1481 17.4304 10.8693C17.6238 10.5528 17.6705 10.1333 17.7637 9.29448L18.2512 4.90695C18.2796 4.65073 18.2939 4.52262 18.2527 4.42346C18.2165 4.33638 18.1518 4.26414 18.0693 4.21856C17.9753 4.16666 17.8464 4.16666 17.5886 4.16666H3.7502M1.66675 1.66666H2.70711C2.92763 1.66666 3.03789 1.66666 3.12415 1.7086C3.2001 1.74552 3.26303 1.80464 3.30461 1.87813C3.35185 1.96161 3.35873 2.07166 3.37248 2.29175L4.12768 14.3749C4.14144 14.595 4.14831 14.7051 4.19555 14.7885C4.23713 14.862 4.30007 14.9211 4.37601 14.9581C4.46227 15 4.57253 15 4.79305 15H15.8334M6.25008 17.9167H6.25842M13.7501 17.9167H13.7584M6.66675 17.9167C6.66675 18.1468 6.4802 18.3333 6.25008 18.3333C6.01996 18.3333 5.83341 18.1468 5.83341 17.9167C5.83341 17.6865 6.01996 17.5 6.25008 17.5C6.4802 17.5 6.66675 17.6865 6.66675 17.9167ZM14.1667 17.9167C14.1667 18.1468 13.9802 18.3333 13.7501 18.3333C13.52 18.3333 13.3334 18.1468 13.3334 17.9167C13.3334 17.6865 13.52 17.5 13.7501 17.5C13.9802 17.5 14.1667 17.6865 14.1667 17.9167Z" stroke="currentColor" stroke-linecap="round" stroke-linejoin="round"></path>
</svg>