<svg xmlns="http://www.w3.org/2000/svg" width="171" height="58" viewBox="0 0 171 58" fill="none">
<path fill-rule="evenodd" clip-rule="evenodd" d="M72.6622 41.8335C73.3733 41.4991 74.0464 41.0206 74.718 40.5426C78.4094 38.2211 82.7326 35.585 85.536 32.1067C89.1975 27.4884 89.9648 23.1456 88.9386 19.2586C87.49 13.7892 82.0263 9.18785 75.6157 7.13117C69.2554 5.06166 62.0241 5.36388 57.0424 8.93528C53.618 11.3425 51.1885 15.3402 50.8148 21.2731C50.3532 27.9965 53.5162 33.4908 58.418 37.7748C60.2754 39.4532 62.3333 40.7731 64.5554 42.0515C62.3185 43.0813 60.0587 44.1175 57.7656 45.1615C50.1914 48.3169 41.996 50.7087 33.9562 52.2926C23.3566 54.5274 12.7731 54.9138 2.05454 53.3382C1.0854 53.2774 0.169523 53.9715 0.0201453 54.9313C-0.127792 55.8907 0.554461 56.792 1.56017 56.9971C12.6971 58.6199 23.7118 58.2778 34.7234 55.9382C42.9571 54.1514 51.428 51.8422 59.1947 48.4843C62.402 47.0541 65.5474 45.6399 68.6187 44.0906C73.7295 46.3243 79.1313 47.7161 83.567 48.2779C113.109 51.5185 146.116 29.1444 167.275 9.93659C168.021 9.28598 168.091 8.19203 167.419 7.4411C166.746 6.69053 165.611 6.67188 164.865 7.32249C144.381 25.8977 112.567 47.8161 83.965 44.6435C80.6012 44.27 76.6008 43.2899 72.6622 41.8335ZM68.4755 39.9788C69.9437 39.2981 71.3655 38.4765 72.7462 37.5109C76.102 35.2748 80.1397 33.0191 82.7253 29.9035C85.4941 26.434 86.2275 23.1737 85.4674 20.2945C84.2497 15.6881 79.6812 12.2417 74.5107 10.6378C69.2547 8.90194 63.2508 8.89232 59.1611 11.9296C56.515 13.8316 54.7123 16.9023 54.4057 21.4355C54.0467 27.0574 56.7764 31.5857 60.7913 35.0198C63.0566 37.0554 65.6996 38.6876 68.4755 39.9788Z" fill="url(#paint0_linear_1064_4422)"></path>
<path fill-rule="evenodd" clip-rule="evenodd" d="M167.104 8.13895C166.779 8.98992 166.201 9.905 165.622 10.8204C164.522 12.6363 163.299 14.3305 162.773 15.6932C159.489 23.9025 155.653 33.7882 155.096 42.6869C155.017 43.6287 155.779 44.5104 156.774 44.5645C157.767 44.6191 158.647 43.9347 158.689 42.8486C159.25 34.41 163.008 25.0038 166.125 16.9905C166.717 15.6109 168.188 13.5479 169.323 11.7229C170.268 10.1 170.954 8.54251 170.994 7.14977C171.07 6.36218 170.453 5.13649 168.612 4.68304C166.02 4.11313 159.379 4.7257 158.725 4.73855C152.099 4.88747 146.225 4.84544 140.882 0.366252C140.13 -0.210678 138.995 -0.0751828 138.322 0.556738C137.686 1.33299 137.806 2.53186 138.559 3.10842C144.638 8.16857 151.319 8.61975 158.858 8.3924C159.313 8.27663 163.275 7.88345 166.147 8.07495C166.47 8.14637 166.785 8.06643 167.104 8.13895Z" fill="url(#paint1_linear_1064_4422)"></path>
<defs>
<linearGradient id="paint0_linear_1064_4422" x1="171" y1="4.99999" x2="20" y2="75.5" gradientUnits="userSpaceOnUse">
<stop stop-color="#F85FA0"></stop>
<stop offset="0.380208" stop-color="#FFF94F"></stop>
<stop offset="1" stop-color="white" stop-opacity="0"></stop>
</linearGradient>
<linearGradient id="paint1_linear_1064_4422" x1="171" y1="4.99999" x2="20" y2="75.5" gradientUnits="userSpaceOnUse">
<stop stop-color="#F85FA0"></stop>
<stop offset="0.380208" stop-color="#FFF94F"></stop>
<stop offset="1" stop-color="white" stop-opacity="0"></stop>
</linearGradient>
</defs>
</svg>