<svg xmlns="http://www.w3.org/2000/svg" width="30" height="34" viewBox="0 0 30 34" fill="none">
<g clip-path="url(#clip0_1240_1680)">
<path d="M30 22.5C30 23.6 29.3 25 28.3 25.6L16.6 33.4C15.7 34 14.2 34 13.3 33.4L1.7 25.6C0.7 25 0 23.6 0 22.5V11.5C0 10.4 0.7 9.00002 1.7 8.40002L13.4 0.600024C14.3 2.44081e-05 15.8 2.44081e-05 16.7 0.600024L28.4 8.40002C29.3 9.00002 30.1 10.4 30.1 11.5V22.5H30Z" fill="#72BF40"></path>
<path d="M9 10H21V13H9V10ZM6 15H24V18H6V15ZM3 20H27V23H3V20Z" fill="white"></path>
</g>
<defs>
<clipPath id="clip0_1240_1680">
<rect width="30" height="34" fill="white"></rect>
</clipPath>
</defs>
</svg>