<svg class="grid1_icon" xmlns="http://www.w3.org/2000/svg" width="119" height="6" viewBox="0 0 119 6" fill="none">
<path d="M119 0.885906C118.394 0.845638 117.839 0.845638 117.233 0.845638C116.627 0.845638 116.072 0.805369 115.466 0.765101C114.153 0.684564 112.891 0.563758 111.578 0.483222C109.104 0.322148 106.58 0.161074 104.106 0.120805C101.834 0.0402685 99.5117 0 97.2397 0C96.6339 0 96.028 0 95.4726 0C93.2007 0.0402685 90.9287 0.0402685 88.6568 0.0805369C83.3555 0.201342 78.0038 0.322148 72.7026 0.52349C67.5023 0.724832 62.3021 0.926175 57.1523 1.16779C54.6279 1.28859 52.053 1.4094 49.5286 1.5302C46.7518 1.73154 43.975 1.85235 41.2486 2.01342C35.5435 2.37584 29.8888 2.69799 24.1837 3.0604C19.2359 3.38255 14.3386 3.8255 9.44124 4.38926C6.31099 4.79195 3.13025 5.2349 0 5.67785C3.58464 5.87919 7.21977 5.95973 10.8549 6C13.2278 6 15.6008 5.95973 17.9232 5.91946C19.4378 5.87919 20.9525 5.79866 22.5176 5.71812C23.4769 5.67785 24.3857 5.59732 25.2944 5.51678C27.7684 5.31544 30.2927 5.15436 32.7667 4.95302C35.6445 4.75168 38.4718 4.51007 41.3496 4.30872C44.2779 4.10738 47.2567 3.90604 50.185 3.7047C52.8104 3.54362 55.4862 3.38255 58.1621 3.22148C60.737 3.0604 63.3623 2.9396 65.9372 2.81879C68.5626 2.69799 71.1375 2.57718 73.7628 2.45638C76.4387 2.33557 79.0641 2.2953 81.7399 2.21477C86.5868 2.05369 91.4336 2.01342 96.3309 1.97315C99.0573 1.97315 101.733 1.89262 104.459 1.81208C107.135 1.73154 109.811 1.65101 112.437 1.5302C113.497 1.48993 114.608 1.44966 115.668 1.36913C116.173 1.32886 116.728 1.28859 117.233 1.20805C117.687 1.12752 118.142 1.00671 118.596 0.966443C118.748 0.926175 118.849 0.885906 119 0.885906Z" fill="url(#paint0_linear_696_1269)"></path>
<defs>
<linearGradient id="paint0_linear_696_1269" x1="15.0633" y1="6" x2="24.3252" y2="-24.5103" gradientUnits="userSpaceOnUse">
<stop stop-color="#CE1BFB"></stop>
<stop offset="1" stop-color="#35E6CC"></stop>
</linearGradient>
</defs>
</svg>