<svg xmlns="http://www.w3.org/2000/svg" width="14" height="14" viewBox="0 0 14 14" fill="none">
<path d="M6.66871 0.730009C6.79787 0.445389 7.20213 0.445389 7.33129 0.730009L9.03703 4.48862C9.0886 4.60224 9.19479 4.68151 9.31838 4.69864L13.2746 5.24699C13.5724 5.28826 13.6945 5.65245 13.4817 5.86485L10.5642 8.77693C10.4801 8.86085 10.4423 8.98053 10.4629 9.09752L11.1918 13.2368C11.2453 13.5403 10.9208 13.7687 10.6532 13.6159L7.18032 11.634C7.06857 11.5703 6.93143 11.5703 6.81968 11.634L3.34678 13.6159C3.07915 13.7687 2.75472 13.5403 2.80816 13.2368L3.53712 9.09752C3.55773 8.98053 3.51992 8.86085 3.43584 8.77693L0.518297 5.86485C0.305502 5.65245 0.427555 5.28826 0.725363 5.24699L4.68162 4.69864C4.80521 4.68151 4.9114 4.60224 4.96297 4.48862L6.66871 0.730009Z" fill="#FFC634"></path>
</svg>