<svg xmlns="http://www.w3.org/2000/svg" width="31" height="34" viewBox="0 0 31 34" fill="none">
<g clip-path="url(#clip0_1240_1723)">
<path d="M28.3 25.6L16.6 33.4C15.7 34 14.2 34 13.3 33.4L1.7 25.6C0.7 25 0 23.6 0 22.5V11.5C0 10.4 0.7 9.00002 1.7 8.40002L13.4 0.600024C14.3 2.44081e-05 15.8 2.44081e-05 16.7 0.600024L28.4 8.40002C29.3 9.00002 30.1 10.4 30.1 11.5V22.5C30.1 23.6 29.3 25 28.3 25.6Z" fill="#56A4CA"></path>
<path d="M16.5 15.1H20L10 27L13.5 18.9H10L20 7L16.5 15.1Z" fill="white"></path>
</g>
<defs>
<clipPath id="clip0_1240_1723">
<rect width="31" height="34" fill="white"></rect>
</clipPath>
</defs>
</svg>