<svg xmlns="http://www.w3.org/2000/svg" width="30" height="34" viewBox="0 0 30 34" fill="none">
<g clip-path="url(#clip0_1240_1714)">
<path d="M30 22.3C30 23.4 29.3 24.8 28.3 25.4L16.6 33.2001C15.7 33.8 14.2 33.8 13.3 33.2001L1.7 25.5C0.8 24.9 0 23.5 0 22.4V11.4C0 10.3 0.7 8.90005 1.7 8.30005L13.4 0.500049C14.3 -0.0999512 15.8 -0.0999512 16.7 0.500049L28.4 8.30005C29.3 8.90005 30.1 10.3 30.1 11.4V22.3H30Z" fill="#8360A8"></path>
<path d="M15 27.3C14.3 27.3 13.7 27.2001 13.2 27C12.8 26.8 12.4 26.5 12 26L11.7 25.9L9.30002 27H9.20001C9.00001 27 8.80001 26.9001 8.70001 26.7001C8.60001 26.5 8.50002 26.2001 8.60002 26L11.1 19V16.4C11.1 11.2 13.6 6.30005 15.2 6.30005C16.8 6.30005 19.3 11.2 19.3 16.4V19L21.8 26C21.9 26.2001 21.8 26.5 21.7 26.7001C21.6 26.9001 21.4 27 21.2 27H21L18.6 26L18 26.1C17.7 26.6 17.3 27 16.8 27.1C16.3 27.2 15.7 27.3 15 27.3Z" fill="white"></path>
<path d="M15 6.80005C16 6.80005 18.6 11.1 18.6 16.4C18.6 17.1 18.6 18.1 18.5 19.1L21 26.2001C21 26.3001 21 26.5 20.9 26.5L18.4 25.4L17.8 25.6C17.5 26.1 17.2 26.4 16.8 26.5C16.4 26.7001 15.8 26.7001 15.2 26.7001C14.6 26.7001 14 26.6 13.6 26.5C13.2 26.4 12.9 26 12.6 25.6L12 25.3L9.50005 26.4C9.00005 26.5 9.00005 26.3001 9.00005 26.2001L11.5 19.1V16.4C11.4 11.1 14 6.80005 15 6.80005ZM15 5.80005C12.7 5.80005 10.4 11.9 10.4 16.4V18.9L8.00005 25.8C7.90005 26.3 8.00005 26.7001 8.20005 27C8.40005 27.3 8.80005 27.5 9.10005 27.5H9.30005L9.50005 27.4L11.7 26.5C12.1 27 12.5 27.4 13 27.6C13.5 27.8 14.2 27.9 14.9 27.9C15.6 27.9 16.3 27.8 16.8 27.6C17.3 27.4 17.7 27.1 18.1 26.6L20.3 27.5L20.5 27.6H20.7C21.1 27.6 21.4 27.4 21.6 27.1C21.8 26.8 21.9 26.3 21.8 26L19.4 19.1V16.6C19.6 11.9 17.3 5.80005 15 5.80005Z" fill="#8360A8"></path>
<path d="M15 17.3C15.8284 17.3 16.5 16.6285 16.5 15.8C16.5 14.9716 15.8284 14.3 15 14.3C14.1716 14.3 13.5 14.9716 13.5 15.8C13.5 16.6285 14.1716 17.3 15 17.3Z" fill="#8360A8"></path>
<path d="M16.5 34V29.3C16.5 28.5 15.8 27.8 15 27.8C14.2 27.8 13.5 28.5 13.5 29.3V34H16.5ZM26.3 32.8C25.5 32.8 25 32.4 24.7 31.5L24 29.1L23.3 31.5C23 32.3 22.5 32.8 21.7 32.8C20.9 32.8 20.4 32.4 20.1 31.5L18.5 26.4C18.4 26.2 18.4 26 18.4 25.9C18.4 25.1 19 24.5 19.8 24.5C20.2 24.5 20.9 24.7 21.2 25.7L21.8 28L22.4 26C22.7 25 23.2 24.5 24 24.5C24.8 24.5 25.3 25 25.6 26L26.2 28L26.8 25.6C27 24.9 27.5 24.5 28.1 24.5C28.9 24.5 29.4 25.1 29.4 25.8C29.4 26 29.4 26.1 29.3 26.3L27.7 31.4C27.6 32.4 27 32.8 26.3 32.8Z" fill="white"></path>
<path d="M28.2 25.1001C28.6 25.1001 29 25.4001 29 25.9001C29 26.0001 29 26.1001 28.9 26.3001L27.3 31.4001C27 32.2001 26.5 32.3001 26.2 32.3001C25.9 32.3001 25.4 32.2001 25.1 31.4001L24 27.5001L22.8 31.4001C22.6 32.2001 22.1 32.3001 21.7 32.3001C21.3 32.3001 20.9 32.2001 20.6 31.4001L19 26.3001C19 26.1001 18.9 26.0001 18.9 25.9001C18.9 25.4001 19.3 25.0001 19.8 25.0001C20.1 25.0001 20.5 25.1001 20.7 25.8001L21.8 29.8001L22.9 26.1001C23.2 25.1001 23.7 25.0001 24 25.0001C24.3 25.0001 24.8 25.1001 25.1 26.1001L26.2 29.8001L27.3 25.8001C27.5 25.2001 27.9 25.1001 28.2 25.1001ZM28.2 24.1001C27.3 24.1001 26.6 24.7001 26.4 25.6001L26.2 26.2001L26.1 25.9001C25.7 24.4001 24.7 24.1001 24 24.1001C23.3 24.1001 22.3 24.4001 21.9 25.9001L21.8 26.2001L21.7 25.7001C21.4 24.7001 20.8 24.1001 19.8 24.1001C18.8 24.1001 17.9 24.9001 17.9 26.0001C17.9 26.2001 17.9 26.4001 18 26.7001L19.6 31.8001C19.9 32.9001 20.7 33.4001 21.7 33.4001C22.7 33.4001 23.4 32.8001 23.7 31.7001L24 30.9001L24.3 31.7001C24.6 32.8001 25.3 33.3001 26.3 33.3001C27.3 33.3001 28 32.7001 28.3 31.7001L29.9 26.6001C30 26.3001 30 26.1001 30 25.9001C30 24.9001 29.2 24.1001 28.2 24.1001Z" fill="#8360A8"></path>
</g>
<defs>
<clipPath id="clip0_1240_1714">
<rect width="30" height="34" fill="white"></rect>
</clipPath>
</defs>
</svg>